<svg xmlns="http://www.w3.org/2000/svg" viewBox="0 0 470 353"><title>costs_icon</title><g id="Layer_2" data-name="Layer 2"><g id="Layer_1-2" data-name="Layer 1"><path d="M316.64,247.42a108.21,108.21,0,0,0-2.1-146.12h0l0,0A108.19,108.19,0,0,0,239.26,67.1h0L237.14,67c-.55,0-1.09,0-1.64,0s-1.1,0-1.64,0l-2.11.06h0a108.19,108.19,0,0,0-75.24,34.14s0,0,0,0h0a108.2,108.2,0,0,0-2.1,146.12s0,.07,0,.1.16.14.24.22a108.25,108.25,0,0,0,77.1,36.16h0l2.11.06c.55,0,1.1,0,1.65,0s1.1,0,1.64,0l2.11-.06h0a108.25,108.25,0,0,0,77.17-36.24c0-.06.13-.08.17-.15S316.62,247.45,316.64,247.42ZM134.58,179.24h44.91a138.27,138.27,0,0,0,9,45.71,138,138,0,0,0-30.35,15.46A100.55,100.55,0,0,1,134.58,179.24Zm25.64-71a137.62,137.62,0,0,0,29.56,14.52,138.16,138.16,0,0,0-10.29,49H134.58A100.58,100.58,0,0,1,160.22,108.24Zm176.21,63.52H291.52a138.16,138.16,0,0,0-10.29-49,137.62,137.62,0,0,0,29.56-14.52A100.58,100.58,0,0,1,336.42,171.76ZM231.76,123a130.79,130.79,0,0,1-31.69-4.8,130.9,130.9,0,0,1,31.69-41.29Zm0,7.48v41.29H187a130.67,130.67,0,0,1,10-46.67A138.24,138.24,0,0,0,231.76,130.47Zm7.48,0a138.12,138.12,0,0,0,34.82-5.38,130.67,130.67,0,0,1,10,46.67h-44.8Zm0-7.48V76.89a130.9,130.9,0,0,1,31.69,41.29A130.79,130.79,0,0,1,239.24,123Zm38.94-7.07a138.17,138.17,0,0,0-29.51-40.54,100.73,100.73,0,0,1,56.81,27.38A130.13,130.13,0,0,1,278.19,115.91Zm-85.37,0a130,130,0,0,1-27.29-13.16,100.71,100.71,0,0,1,56.81-27.38A138.11,138.11,0,0,0,192.81,115.91ZM187,179.24h44.79V216.8a138,138,0,0,0-36.15,5.77A130.67,130.67,0,0,1,187,179.24Zm44.79,45v49.83a130.84,130.84,0,0,1-33.24-44.59A130.45,130.45,0,0,1,231.76,224.28Zm7.48,49.83V224.28a130.45,130.45,0,0,1,33.24,5.24A130.82,130.82,0,0,1,239.24,274.11Zm0-57.31V179.24H284a130.61,130.61,0,0,1-8.65,43.33A137.79,137.79,0,0,0,239.24,216.8Zm52.27-37.56h44.91a100.53,100.53,0,0,1-23.6,61.16,138,138,0,0,0-30.35-15.46A138.17,138.17,0,0,0,291.52,179.24ZM163.26,246a130.39,130.39,0,0,1,28.12-14.15,138.06,138.06,0,0,0,30.94,43.77A100.8,100.8,0,0,1,163.26,246Zm85.42,29.62a138,138,0,0,0,30.94-43.77A130.48,130.48,0,0,1,307.74,246,100.8,100.8,0,0,1,248.67,275.63Z" style="fill:#219b48"/><circle cx="368" cy="252" r="97" style="fill:#fff"/><path d="M367.5,148A102.5,102.5,0,1,0,470,250.5,102.62,102.62,0,0,0,367.5,148Zm0,197.12a94.62,94.62,0,1,1,94.62-94.62A94.73,94.73,0,0,1,367.5,345.12Z" style="fill:#219b48"/><path d="M415.8,208.46l-60.59,68.16-36.5-29.2a3.94,3.94,0,0,0-4.92,6.16l39.42,31.54a3.95,3.95,0,0,0,5.41-.46l63.08-71a3.94,3.94,0,0,0-5.9-5.24Z" style="fill:#219b48"/><circle cx="102" cy="102" r="97" style="fill:#fff"/><path d="M102.5,0A102.5,102.5,0,1,0,205,102.5,102.62,102.62,0,0,0,102.5,0Zm0,197.12a94.62,94.62,0,1,1,94.62-94.62A94.73,94.73,0,0,1,102.5,197.12Z" style="fill:#219b48"/><text transform="translate(53.18 153.35)" style="font-size:146.31643676757812px;fill:none;stroke:#219b48;stroke-miterlimit:10;stroke-width:6px;font-family:Roboto-Thin, Roboto">€</text></g></g></svg>