<svg xmlns="http://www.w3.org/2000/svg" viewBox="0 0 531 402"><title>europe_icon</title><g id="Layer_2" data-name="Layer 2"><g id="Layer_1-2" data-name="Layer 1"><path d="M530.43,324.17l-21.37-4.84-24.14-7.44-11.7-.62-11.7-9.3-11.7-3.72L444,296.39,437.38,302l-6.58,3.1-12.43,4.34-3.66-1.86,3.66-4.34-10.24-5,3.66-5L403,294.53v-5.58l-13.17,2.48s-8,3.1-10.24,4.34,10.24.62,10.24.62l-8.78,7.44L376.67,315l-1.46,8.06-7.31,3.1-.73,7.44v4.34l5.12-1.24L373,341l8,5v3.1l-8,2.48-10.24,5.58-5.85.62,2.19-4.34s-15.36,0-19.75.62a42.93,42.93,0,0,1-9.51,0l5.85,3.1.73,7.44s-8.78-6.82-15.36-8.06,0,0,0,2.48a20.13,20.13,0,0,0,.73,5l8.78,11.78A144.33,144.33,0,0,1,346,381.34c8.78,3.72-10.24,1.24-12.43,1.24s2.19,3.1,2.19,3.1l-3.66,3.1-5.85-1.24-2.93,5,3.66,1.24,3.66,3.72s-4.39,3.1-6.58,4.34-2.19-3.72-2.19-3.72H311.58L307.19,390v-5.58l-4.39-5.58,4.39-3.1-8-2.48-6.58-6.82s-2.93-6.2-5.12-8.68,1.46-3.1,2.93-5,0-3.72.73-6.82-5.85,1.24-5.85,1.24l-15.36-13c-2.19-1.86-3.66,0-8,0s-2.93-8.06-4.39-9.92-10.24-.62-10.24-.62l1.46-6.82.73-6.82-5.85,3.1h-2.19c-2.19,0-4.39-5.58-4.39-5.58l7.31-5L231.86,302l-6.58.62.73,11.78v8.06l5.85.62,3.66,11.78,2.93,5.58,7.31,3.1,6.58-1.24,6.58,3.72-3.66,5,5.85,1.24,5.85,3.1h7.31l4.39,5.58-.73,5.58-4.39,1.86V364l-4.39-1.24-4.39-2.48-2.93,5.58H264c2.19,0,2.19,8.68,2.19,8.68L264,373.9c-2.19-.62-6.58,7.44-6.58,7.44l-5.85,3.1-8-3.72h7.31s2.93-3.1,4.39-5-.73-5.58-.73-5.58l-5.12-3.1-6.58-3.1,2.93-3.72-11-6.82-8-6.2-7.31-3.72s-10.24-11.78-12.43-13-3.66-12.4-3.66-12.4L196,315l-10.24,1.24-10.24,5s-7.31,1.86-11,1.24a5.31,5.31,0,0,1-4.39-3.72L147.74,315s-11.7,1.24-13.9,1.86,5.85,12.4,5.85,12.4l-15.36,7.44H106.05c-3.66,0-9.51,6.82-9.51,6.82l-2.19,12.4-5.85,6.82s-8,1.24-10.24.62-2.19,6.82-2.19,6.82H49.74c-2.19,0-8.78-4.34-8.78-4.34l-12.43,4.34-3.66-4.34-4.39-8.68-6.58-5.58H0L5.12,346l4.39-8.06H5.12v-6.82L11,325.53l3.66-13s8.78-11.78,5.85-11.78,7.31-6.82,7.31-6.82l11-5.58,6.58,1.24H51.2v6.2l14.63.62L76.07,302l13.17,6.2,3.66-4.34,11-8.06-.73-9.92,4.39,5.58v-8.68c0-4.34-4.39,0-4.39,0l1.46-9.92-3.66-7.44-13.17-8.06H84.11l5.12-9.92L98,249.27l8.78,2.48,6.58,5.58v-13l7.31-3.72s-2.19,2.48,0,4.34a17.05,17.05,0,0,1,3.66,5l7.31-3.72s6.58.62,10.24,0,0-4.34,0-4.34L151.4,235l8,3.1h8V235l5.85-6.82,5.85-3.72,3.66-4.34,5.85-1.24,4.39,5.58,3.66-3.72v-5c0-1.86,5.85,0,5.85,0v5h8l2.19-7.44-3.66-3.72,1.46-8.06-1.46-6.82-1.46-4.34,2.19-5,6.58-1.24,3.66-4.34,8-4.34,1.46,6.82-4.39,4.34,1.46,5-2.19,4.34L218,200.28l.73,8.68,8,7.44,6.58-.62,8-1.24,6.58,1.86,2.93,4.34h6.58l11-5,11.34-5,4,5h8s5.85-7.44,5.85-5.58,9.51,0,9.51,0l3.66-4.34s-5.85-4.34-3.66-6.2-5.85-1.86-5.85-1.86l5.85-13.64,9.51-4.34,2.93,7.44,4.39-6.2-.73-7.44-4.39-7.44L343,160.6s7.31-3.72,9.51-4.34a22.58,22.58,0,0,1,5.12-.62l5.12-3.72-9.51-4.34-8-3.72L335,149.44l-27.79,1.24-4.39-5.58-1.46-13.64,5.85-3.1v-5l8-9.3,10.24-7.44L324,98s-5.85-3.1-9.51-3.72-7.31,3.1-7.31,3.1l-6.58,8.06.73,9.3-8,8.68H288.9l-6.58,6.82s-3.66,6.82-2.19,9.3,2.19,5.58,2.93,8.06,5.12,6.2,5.12,6.2v8.68l-5.12,4.34-5.12,8.06L271,196.56l-6.95-.62-5.12.62-7.31,4.34-7.31,5-.73-8.06.73-7.44s-3.66-3.72-8-3.72l1.46-13-1.46-9.3-1.46-10.54-7.31,11.78h-3.66l-7.31,8.06-16.09-5L196.75,160V135.79l8-7.44,11-6.2,13.9-5.58,8-6.2h12.43v-3.72s4.39-7.44,5.85-9.3,11.7-15.5,12.43-18,10.24-9.92,10.24-9.92L294,54.57l8.78-6.82,16.82-6.82,21.94,4.34,3.66,9.3,9.51-3.1,6.58,3.1,28.52.62,6.58,8.06,8-5.58,14.63-7.44,2.93-9.3s.73-10.54,2.93-11.16,11.7-5,11.7-5,11.7-5.58,13.9-6.82,23.4-3.72,24.14-5.58,16.09-9.3,16.09-9.3L531,0" style="fill:#fff"/><path d="M92.89,175.48H82.65s-2.19,6.2,0,6.82l-2.19-.62L75.33,179s2.19,1.19,0,3.5S68,189.12,68,189.12h5.85l-1.46,5-8.78,3.1L60.71,201s-4.39,4.24,0,4.86,15.12,2.48,15.12,2.48H92.89L95.81,201v-3.2l11-8.68V175.48H92.89Z" style="fill:#fff"/><path d="M133.12,147l11,5v4.34l-12.43,3.1s9.51-1.86,12.43,0l2.93,1.86s1.46,6.82,0,7.44-5.12,3.1-7.31,3.72-8,3.1-8,3.1c5.85,2.48,10.24,1.86,11,3.72s0,3.72,0,5.58v7.13s-2.19,4.65,0,5.27.73-3.72,2.19.62,2.84,8.06,2.84,8.06l-3.58,2.48,3.58,3.1s-5.77,2.48-3.58,3.1,11.7,0,11.7,0v5s4.39,4.34,0,5.58a65.63,65.63,0,0,0-10.24,4.34v3.72l-10.24,3.72-14.63-4.34H94.35L90,236.86v-7.44l4.39-3.1s3.66-1.86,5.85-1.86h6.58s5.12,0,7.31-1.86l2.19-1.86-9.51-1.86-4.39-2.48s-8.78-2.48-5.12-3.72l3.66-1.24s1.46,1.24,5.85-1.24,5.85-4.34,5.85-4.34-2.19-5.38,1.46-4.86,5.85,4.86,5.85,4.86l3.9-4.86s-1.22-5.68,0-9.09a8,8,0,0,0,0-5.89H113.37l5.12-6.82,5.36-3.72s-4.63-5.58-4.63-8.68-.73-6.2,0-8.68S133.12,147,133.12,147Z" style="fill:#fff"/><circle cx="223.5" cy="263.5" r="5.5" style="fill:#7c7c7c"/><circle cx="295.5" cy="274.5" r="5.5" style="fill:#7c7c7c"/><circle cx="260.5" cy="240.5" r="5.5" style="fill:#7c7c7c"/><circle cx="314.5" cy="230.5" r="5.5" style="fill:#7c7c7c"/><circle cx="325.5" cy="138.5" r="5.5" style="fill:#7c7c7c"/><circle cx="260.5" cy="285.5" r="5.5" style="fill:#7c7c7c"/><circle cx="223.5" cy="225.5" r="5.5" style="fill:#7c7c7c"/><circle cx="217.5" cy="189.5" r="5.5" style="fill:#7c7c7c"/><circle cx="212.5" cy="152.5" r="5.5" style="fill:#7c7c7c"/><circle cx="260.5" cy="175.5" r="5.5" style="fill:#7c7c7c"/><circle cx="181.5" cy="274.5" r="5.5" style="fill:#7c7c7c"/><circle cx="157.5" cy="251.5" r="5.5" style="fill:#7c7c7c"/><circle cx="137.5" cy="274.5" r="5.5" style="fill:#7c7c7c"/><circle cx="137.5" cy="220.5" r="5.5" style="fill:#7c7c7c"/><circle cx="131.5" cy="159.5" r="5.5" style="fill:#7c7c7c"/><circle cx="84.5" cy="195.5" r="5.5" style="fill:#7c7c7c"/><line x1="84" y1="195" x2="137" y2="220" style="fill:#7c7c7c;stroke:#7c7c7c;stroke-miterlimit:10"/><line x1="131.5" y1="159.5" x2="136.5" y2="219.5" style="fill:none;stroke:#7c7c7c;stroke-miterlimit:10"/><line x1="157.5" y1="251.5" x2="136.5" y2="219.5" style="fill:none;stroke:#7c7c7c;stroke-miterlimit:10"/><line x1="137.5" y1="274.5" x2="157.5" y2="251.5" style="fill:none;stroke:#7c7c7c;stroke-miterlimit:10"/><line x1="137.5" y1="274.5" x2="106.5" y2="308.5" style="fill:none;stroke:#7c7c7c;stroke-miterlimit:10"/><line x1="169.5" y1="308.5" x2="137.5" y2="274.5" style="fill:none;stroke:#7c7c7c;stroke-miterlimit:10"/><line x1="181.5" y1="274.5" x2="169.5" y2="308.5" style="fill:none;stroke:#7c7c7c;stroke-miterlimit:10"/><line x1="218.5" y1="327.5" x2="181.5" y2="274.5" style="fill:none;stroke:#7c7c7c;stroke-miterlimit:10"/><line x1="157.5" y1="251.5" x2="181.5" y2="274.5" style="fill:none;stroke:#7c7c7c;stroke-miterlimit:10"/><line x1="218.5" y1="327.5" x2="223.5" y2="263.5" style="fill:none;stroke:#7c7c7c;stroke-miterlimit:10"/><line x1="223.5" y1="225.5" x2="223.5" y2="263.5" style="fill:none;stroke:#7c7c7c;stroke-miterlimit:10"/><line x1="217.5" y1="189.5" x2="223.5" y2="225.5" style="fill:none;stroke:#7c7c7c;stroke-miterlimit:10"/><line x1="212.5" y1="152.5" x2="217.5" y2="189.5" style="fill:none;stroke:#7c7c7c;stroke-miterlimit:10"/><line x1="260.5" y1="175.5" x2="217.5" y2="189.5" style="fill:none;stroke:#7c7c7c;stroke-miterlimit:10"/><line x1="260.5" y1="240.5" x2="223.5" y2="225.5" style="fill:none;stroke:#7c7c7c;stroke-miterlimit:10"/><line x1="260.5" y1="285.5" x2="223.5" y2="263.5" style="fill:none;stroke:#7c7c7c;stroke-miterlimit:10"/><line x1="325.5" y1="138.5" x2="314.5" y2="230.5" style="fill:none;stroke:#7c7c7c;stroke-miterlimit:10"/><line x1="295.5" y1="274.5" x2="314.5" y2="230.5" style="fill:none;stroke:#7c7c7c;stroke-miterlimit:10"/><line x1="301.5" y1="327.5" x2="295.5" y2="274.5" style="fill:none;stroke:#7c7c7c;stroke-miterlimit:10"/><line x1="260.5" y1="285.5" x2="295.5" y2="274.5" style="fill:none;stroke:#7c7c7c;stroke-miterlimit:10"/><line x1="260.5" y1="240.5" x2="295.5" y2="274.5" style="fill:none;stroke:#7c7c7c;stroke-miterlimit:10"/><line x1="314.5" y1="230.5" x2="260.5" y2="240.5" style="fill:none;stroke:#7c7c7c;stroke-miterlimit:10"/><line x1="260.5" y1="175.5" x2="260.5" y2="240.5" style="fill:none;stroke:#7c7c7c;stroke-miterlimit:10"/><line x1="212.5" y1="152.5" x2="181.5" y2="274.5" style="fill:none;stroke:#7c7c7c;stroke-miterlimit:10"/><line x1="228.5" y1="225.5" x2="181.5" y2="274.5" style="fill:none;stroke:#7c7c7c;stroke-miterlimit:10"/><line x1="223.5" y1="263.5" x2="181.5" y2="274.5" style="fill:none;stroke:#7c7c7c;stroke-miterlimit:10"/><line x1="325.5" y1="138.5" x2="260.5" y2="175.5" style="fill:none;stroke:#7c7c7c;stroke-miterlimit:10"/><line x1="301.5" y1="327.5" x2="260.5" y2="285.5" style="fill:none;stroke:#7c7c7c;stroke-miterlimit:10"/><line x1="131" y1="159" x2="181" y2="274" style="fill:#7c7c7c;stroke:#7c7c7c;stroke-miterlimit:10"/></g></g></svg>