<svg xmlns="http://www.w3.org/2000/svg" viewBox="0 0 528.44 156.72"><title>goal_icon</title><g id="Layer_2" data-name="Layer 2"><g id="Layer_1-2" data-name="Layer 1"><text transform="translate(452.25 118.24)" style="font-size:136.46583557128906px;stroke:#000;stroke-miterlimit:10;stroke-width:3px;font-family:Roboto-Thin, Roboto">€</text><g id="Forma_1" data-name="Forma 1"><path d="M124.76,59.16a4,4,0,0,0-.27-.3l-4.66-4.49c3.87-.88,8-4.11,8-7.42,0-3.86-5.37-5.23-10-5.23-4.79,0-5.35,3.28-5.41,5.59l-12-11.57a17,17,0,0,0-10.54-4.31H43.07a17,17,0,0,0-10.54,4.31l-12,11.57c-.06-2.32-.62-5.59-5.41-5.59-4.59,0-10,1.37-10,5.23,0,3.32,4.16,6.55,8,7.42L8.52,58.85c-.11.1-.18.2-.27.3C3.26,63.41,0,71.3,0,77V94A15.5,15.5,0,0,0,4.27,104.7v6.59a7.12,7.12,0,0,0,7.22,7h8.72a7.11,7.11,0,0,0,7.21-7v-1.69h78.16v1.69a7.11,7.11,0,0,0,7.22,7h8.72a7.12,7.12,0,0,0,7.21-7V104.7A15.49,15.49,0,0,0,133,94V77C133,71.3,129.74,63.41,124.76,59.16ZM37,40.88a12,12,0,0,1,6.12-2.47H89.93a12,12,0,0,1,6.12,2.47l15.77,15.25H21.19ZM5.41,74.45a7.47,7.47,0,0,1,7.34-7.59c4.05,0,17.3,7.76,17.3,11.95S16.8,82,12.75,82A7.46,7.46,0,0,1,5.41,74.45Zm22,27.7H16.33a15.7,15.7,0,0,1-5.07-2.45,7.2,7.2,0,0,1-1.37-1.39,5.39,5.39,0,0,1-.77-1.4c-1-2.91,1.1-5.58,1.1-5.58H24.37l9.44,10.81Zm59.43,0H46.15a7.68,7.68,0,0,1-7.69-7.67H94.54A7.68,7.68,0,0,1,86.85,102.15Zm1.79-12.9H44.37c-4.62,0-8.36-5.68-8.36-12.68H97C97,83.58,93.25,89.25,88.64,89.25Zm35.25,7.67a5.46,5.46,0,0,1-.77,1.4,7.06,7.06,0,0,1-1.37,1.39,15.61,15.61,0,0,1-5.07,2.45H99.2l9.44-10.81h14.15S124.92,94,123.89,96.92ZM120.25,82C116.2,82,103,83,103,78.81s13.24-11.95,17.29-11.95a7.59,7.59,0,0,1,0,15.17Z" style="fill-rule:evenodd"/></g><polyline points="157.5 68 201.52 68 201.52 55.22 229.92 73.68 201.52 90.72 201.52 77.94 157.5 77.94" style="stroke:#000;stroke-miterlimit:10"/><polyline points="355.5 70 399.52 70 399.52 57.22 427.92 75.68 399.52 92.72 399.52 79.94 355.5 79.94" style="stroke:#000;stroke-miterlimit:10"/><path d="M341.25,27.22c-7.58,0-13.75,5-13.75,11.15a9.48,9.48,0,0,0,1.66,5.31L306.65,62a21.63,21.63,0,0,0-22.44,0L266.65,47.7a6.34,6.34,0,0,0,1.3-3.75c0-4.1-4.11-7.43-9.16-7.43s-9.16,3.33-9.16,7.43,4.11,7.43,9.16,7.43a10.67,10.67,0,0,0,4.63-1.05L281,64.58a12.64,12.64,0,0,0,0,18.2l-29,23.53a15.58,15.58,0,0,0-9.22-2.9c-7.58,0-13.75,5-13.75,11.15s6.16,11.15,13.75,11.15,13.75-5,13.75-11.15a9.48,9.48,0,0,0-1.66-5.31l29.39-23.84a20.66,20.66,0,0,0,9,3v18.88c-6.58.89-11.54,5.47-11.54,11,0,6.15,6.16,11.15,13.75,11.15s13.75-5,13.75-11.15c0-5.51-5-10.09-11-11V88.41a20.92,20.92,0,0,0,8.48-3l17.57,14.25a6.34,6.34,0,0,0-1.3,3.75c0,4.1,4.11,7.43,9.16,7.43s9.16-3.33,9.16-7.43S337.14,96,332.09,96A10.67,10.67,0,0,0,327.47,97L309.9,82.78a12.64,12.64,0,0,0,0-18.2l22.14-18a15.56,15.56,0,0,0,9.22,2.9c7.58,0,13.75-5,13.75-11.15S348.84,27.22,341.25,27.22ZM254.2,43.95c0-2,2.05-3.72,4.58-3.72s4.58,1.67,4.58,3.72-2.05,3.72-4.58,3.72S254.2,46,254.2,43.95Zm-11.45,78c-5.05,0-9.16-3.33-9.16-7.43s4.11-7.43,9.16-7.43,9.16,3.33,9.16,7.43S247.8,122,242.75,122Zm61.85-3.72c0,4.1-4.11,7.43-9.16,7.43s-9.16-3.33-9.16-7.43,4.11-7.43,9.16-7.43S304.6,114.18,304.6,118.28Zm-9.16-33.45c-7.58,0-13.75-5-13.75-11.15s6.16-11.15,13.75-11.15,13.75,5,13.75,11.15S303,84.83,295.44,84.83Zm41.24,18.58c0,2-2.05,3.72-4.58,3.72s-4.58-1.67-4.58-3.72,2.05-3.72,4.58-3.72S336.67,101.36,336.67,103.41Zm4.58-57.6c-5.05,0-9.16-3.33-9.16-7.43s4.11-7.43,9.16-7.43,9.16,3.33,9.16,7.43S346.31,45.81,341.25,45.81Z"/></g></g></svg>