<?xml version="1.0" encoding="utf-8"?>
<!-- Generator: Adobe Illustrator 21.1.0, SVG Export Plug-In . SVG Version: 6.00 Build 0)  -->
<svg version="1.1" id="Layer_1" xmlns="http://www.w3.org/2000/svg" xmlns:xlink="http://www.w3.org/1999/xlink" x="0px" y="0px"
	 viewBox="0 0 394.1 362.9" style="enable-background:new 0 0 394.1 362.9;" xml:space="preserve">
<style type="text/css">
	.st0{fill:#FFFFFF;}
	.st1{fill:none;stroke:#000000;stroke-miterlimit:10;}
</style>
<title>imac_icon</title>
<image style="overflow:visible;enable-background:new    ;" width="823" height="757" id="imac_Image-2" xlink:href="9CA31CBF85736B5.png"  transform="matrix(0.4788 0 0 0.4794 0 -5.859375e-05)">
</image>
<rect x="16.7" y="18.8" class="st0" width="358" height="206.4"/>
<g id="sedan-car-front_Image" transform="translate(58 30.47)">
	
		<image style="overflow:visible;enable-background:new    ;" width="50" height="33" id="image" xlink:href="9CA31CBF85736B7.png"  transform="matrix(0.98 0 0 0.9697 0 0.6303)">
	</image>
</g>
<image style="overflow:visible;enable-background:new    ;" width="50" height="33" id="sedan-car-front_Image-2" xlink:href="9CA31CBF85736B2.png"  transform="matrix(0.98 0 0 0.9697 58 100.9001)">
</image>
<g id="sedan-car-front_Image-3" transform="translate(58 181.44)">
	
		<image style="overflow:visible;enable-background:new    ;" width="50" height="33" id="image_2_" xlink:href="9CA31CBF85736B3.png"  transform="matrix(0.98 0 0 0.9697 0 -10.7401)">
	</image>
</g>
<line class="st1" x1="146.7" y1="36.5" x2="279.7" y2="36.5"/>
<line class="st1" x1="146.7" y1="41.8" x2="279.7" y2="41.8"/>
<line class="st1" x1="146.7" y1="47.1" x2="213.2" y2="47.1"/>
<line class="st1" x1="146.7" y1="52.4" x2="256.8" y2="52.4"/>
<line class="st1" x1="146.7" y1="63" x2="174.8" y2="63"/>
<line class="st1" x1="147.7" y1="105.9" x2="280.7" y2="105.9"/>
<line class="st1" x1="147.7" y1="111.2" x2="280.7" y2="111.2"/>
<line class="st1" x1="147.7" y1="116.5" x2="214.2" y2="116.5"/>
<line class="st1" x1="147.7" y1="121.8" x2="257.8" y2="121.8"/>
<line class="st1" x1="147.7" y1="132.4" x2="175.8" y2="132.4"/>
<line class="st1" x1="147.7" y1="181.4" x2="280.7" y2="181.4"/>
<line class="st1" x1="147.7" y1="186.7" x2="280.7" y2="186.7"/>
<line class="st1" x1="147.7" y1="192" x2="214.2" y2="192"/>
<line class="st1" x1="147.7" y1="197.3" x2="257.8" y2="197.3"/>
<line class="st1" x1="147.7" y1="207.9" x2="175.8" y2="207.9"/>
</svg>
