<svg xmlns="http://www.w3.org/2000/svg" xmlns:xlink="http://www.w3.org/1999/xlink" viewBox="0 0 1202.18 392.35"><defs><linearGradient id="White_Black" y1="186.82" x2="1202.18" y2="186.82" gradientUnits="userSpaceOnUse"><stop offset="0" stop-color="#fff"/><stop offset="1"/></linearGradient><linearGradient id="White_Black-2" x1="122.15" y1="209.72" x2="536.14" y2="209.72" xlink:href="#White_Black"/></defs><title>logo</title><g id="Layer_2" data-name="Layer 2"><g id="Layer_1-2" data-name="Layer 1"><text transform="translate(647.12 378.88) scale(0.99 1)" style="font-size:32.068580627441406px;font-family:AXIS-ExtraBold, AXIS;font-weight:700"><tspan style="letter-spacing:-0.039987763016150236em">C</tspan><tspan x="23.19" y="0">ARPOOL DIR</tspan><tspan x="229.77" y="0" style="letter-spacing:-0.024998099455477592em">E</tspan><tspan x="249.94" y="0">CT</tspan></text><line x1="638.96" y1="368.4" x2="611.71" y2="368.4" style="fill:none;stroke:#000;stroke-miterlimit:10"/><line x1="971.69" y1="368.4" x2="944.45" y2="368.4" style="fill:none;stroke:#000;stroke-miterlimit:10"/><path d="M1155.75,373.64s40.35-41.45,46.43-90.09c0,0-88.44-131-384.7-174.11,0,0-190.94-105.49-344.27-108.78C414-.61,408.46-4.43,240.44,40.9L0,111.09s30.28.24,119.94-17.69C128.23,91.75,384,18,447,20c46.21,1.5,96.92-3.42,205.81,39.14s113.31,52,113.31,52-202.38,2.69-268.27,20.82l-2.57.73,318.37-2.21s262,33.72,368.12,163.05C1181.73,293.49,1176.75,336.05,1155.75,373.64Z" style="fill:url(#White_Black)"/><path d="M122.15,144.26s142.05-18.79,225,40.9,150.89,87.33,189,91.2c0,0-73.51,19.9-207-79.59C329.15,196.76,273.6,147,122.15,144.26Z" style="fill:url(#White_Black-2)"/><polygon points="587.64 197.8 711.25 197.8 704.45 226.81 583.91 226.81 587.64 197.8"/><polygon points="737 197.8 850.13 197.8 850.13 219.22 733.27 219.22 737 197.8"/><polygon points="882.59 197.8 995.73 197.8 995.73 219.22 878.86 219.22 882.59 197.8"/><polygon points="728.07 260.61 841.2 260.61 841.2 282.03 724.34 282.03 728.07 260.61"/><polygon points="566.44 314.81 704.45 314.81 700.45 345.78 561.89 345.78 566.44 314.81"/><path d="M860,324.35H994.41v10.46a11,11,0,0,1-11,11H855.53Z"/><polygon points="605.12 345.78 561.89 345.78 587.64 197.8 630.87 197.8 605.12 345.78"/><line x1="586.97" y1="200.56" x2="600.18" y2="200.21" style="stroke:#fff;stroke-miterlimit:10"/><line x1="586.01" y1="206.04" x2="599.21" y2="205.69" style="stroke:#fff;stroke-miterlimit:10"/><line x1="585.04" y1="211.52" x2="598.25" y2="211.17" style="stroke:#fff;stroke-miterlimit:10"/><line x1="584.08" y1="217" x2="597.29" y2="216.65" style="stroke:#fff;stroke-miterlimit:10"/><line x1="583.11" y1="222.48" x2="596.32" y2="222.13" style="stroke:#fff;stroke-miterlimit:10"/><line x1="582.15" y1="227.96" x2="595.36" y2="227.61" style="stroke:#fff;stroke-miterlimit:10"/><line x1="581.18" y1="233.44" x2="594.39" y2="233.09" style="stroke:#fff;stroke-miterlimit:10"/><line x1="580.22" y1="238.92" x2="593.43" y2="238.57" style="stroke:#fff;stroke-miterlimit:10"/><line x1="579.25" y1="244.4" x2="592.46" y2="244.05" style="stroke:#fff;stroke-miterlimit:10"/><line x1="578.29" y1="249.88" x2="591.5" y2="249.53" style="stroke:#fff;stroke-miterlimit:10"/><line x1="577.32" y1="255.36" x2="590.53" y2="255.01" style="stroke:#fff;stroke-miterlimit:10"/><line x1="576.36" y1="260.84" x2="589.57" y2="260.49" style="stroke:#fff;stroke-miterlimit:10"/><line x1="575.4" y1="266.32" x2="588.6" y2="265.97" style="stroke:#fff;stroke-miterlimit:10"/><line x1="574.43" y1="271.8" x2="587.64" y2="271.45" style="stroke:#fff;stroke-miterlimit:10"/><line x1="573.47" y1="277.28" x2="586.67" y2="276.93" style="stroke:#fff;stroke-miterlimit:10"/><line x1="572.5" y1="282.76" x2="585.71" y2="282.41" style="stroke:#fff;stroke-miterlimit:10"/><line x1="571.54" y1="288.24" x2="584.74" y2="287.89" style="stroke:#fff;stroke-miterlimit:10"/><line x1="570.57" y1="293.72" x2="583.78" y2="293.37" style="stroke:#fff;stroke-miterlimit:10"/><line x1="569.61" y1="299.2" x2="582.82" y2="298.85" style="stroke:#fff;stroke-miterlimit:10"/><line x1="568.64" y1="304.68" x2="581.85" y2="304.33" style="stroke:#fff;stroke-miterlimit:10"/><line x1="567.68" y1="310.16" x2="580.89" y2="309.81" style="stroke:#fff;stroke-miterlimit:10"/><line x1="566.71" y1="315.64" x2="579.92" y2="315.29" style="stroke:#fff;stroke-miterlimit:10"/><line x1="565.75" y1="321.12" x2="578.96" y2="320.77" style="stroke:#fff;stroke-miterlimit:10"/><line x1="564.78" y1="326.6" x2="577.99" y2="326.25" style="stroke:#fff;stroke-miterlimit:10"/><line x1="563.82" y1="332.08" x2="577.03" y2="331.73" style="stroke:#fff;stroke-miterlimit:10"/><line x1="562.86" y1="337.56" x2="576.06" y2="337.21" style="stroke:#fff;stroke-miterlimit:10"/><line x1="561.89" y1="343.04" x2="575.1" y2="342.69" style="stroke:#fff;stroke-miterlimit:10"/><polygon points="899.22 345.78 855.99 345.78 881.74 197.8 924.97 197.8 899.22 345.78"/><line x1="881.07" y1="200.56" x2="894.28" y2="200.21" style="stroke:#fff;stroke-miterlimit:10"/><line x1="880.11" y1="206.04" x2="893.31" y2="205.69" style="stroke:#fff;stroke-miterlimit:10"/><line x1="879.14" y1="211.52" x2="892.35" y2="211.17" style="stroke:#fff;stroke-miterlimit:10"/><line x1="878.18" y1="217" x2="891.38" y2="216.65" style="stroke:#fff;stroke-miterlimit:10"/><line x1="877.21" y1="222.48" x2="890.42" y2="222.13" style="stroke:#fff;stroke-miterlimit:10"/><line x1="876.25" y1="227.96" x2="889.46" y2="227.61" style="stroke:#fff;stroke-miterlimit:10"/><line x1="875.28" y1="233.44" x2="888.49" y2="233.09" style="stroke:#fff;stroke-miterlimit:10"/><line x1="874.32" y1="238.92" x2="887.53" y2="238.57" style="stroke:#fff;stroke-miterlimit:10"/><line x1="873.35" y1="244.4" x2="886.56" y2="244.05" style="stroke:#fff;stroke-miterlimit:10"/><line x1="872.39" y1="249.88" x2="885.6" y2="249.53" style="stroke:#fff;stroke-miterlimit:10"/><line x1="871.42" y1="255.36" x2="884.63" y2="255.01" style="stroke:#fff;stroke-miterlimit:10"/><line x1="870.46" y1="260.84" x2="883.67" y2="260.49" style="stroke:#fff;stroke-miterlimit:10"/><line x1="869.5" y1="266.32" x2="882.7" y2="265.97" style="stroke:#fff;stroke-miterlimit:10"/><line x1="868.53" y1="271.8" x2="881.74" y2="271.45" style="stroke:#fff;stroke-miterlimit:10"/><line x1="867.57" y1="277.28" x2="880.77" y2="276.93" style="stroke:#fff;stroke-miterlimit:10"/><line x1="866.6" y1="282.76" x2="879.81" y2="282.41" style="stroke:#fff;stroke-miterlimit:10"/><line x1="865.64" y1="288.24" x2="878.84" y2="287.89" style="stroke:#fff;stroke-miterlimit:10"/><line x1="864.67" y1="293.72" x2="877.88" y2="293.37" style="stroke:#fff;stroke-miterlimit:10"/><line x1="863.71" y1="299.2" x2="876.92" y2="298.85" style="stroke:#fff;stroke-miterlimit:10"/><line x1="862.74" y1="304.68" x2="875.95" y2="304.33" style="stroke:#fff;stroke-miterlimit:10"/><line x1="861.78" y1="310.16" x2="874.99" y2="309.81" style="stroke:#fff;stroke-miterlimit:10"/><line x1="860.81" y1="315.64" x2="874.02" y2="315.29" style="stroke:#fff;stroke-miterlimit:10"/><line x1="859.85" y1="321.12" x2="873.06" y2="320.77" style="stroke:#fff;stroke-miterlimit:10"/><line x1="858.88" y1="326.6" x2="872.09" y2="326.25" style="stroke:#fff;stroke-miterlimit:10"/><line x1="857.92" y1="332.08" x2="871.13" y2="331.73" style="stroke:#fff;stroke-miterlimit:10"/><line x1="856.95" y1="337.56" x2="870.16" y2="337.21" style="stroke:#fff;stroke-miterlimit:10"/><line x1="855.99" y1="343.04" x2="869.2" y2="342.69" style="stroke:#fff;stroke-miterlimit:10"/><polygon points="754.48 345.78 711.25 345.78 737 197.8 780.23 197.8 754.48 345.78"/><polygon points="841.33 282.03 816.73 282.03 831.38 197.8 855.99 197.8 841.33 282.03"/><path d="M985.88,345.13l-31.29.36L980.26,198l27.22-.32a11,11,0,0,1,10.92,12.83L996.55,336A11,11,0,0,1,985.88,345.13Z"/><line x1="736.33" y1="200.56" x2="749.54" y2="200.21" style="stroke:#fff;stroke-miterlimit:10"/><line x1="735.37" y1="206.04" x2="748.58" y2="205.69" style="stroke:#fff;stroke-miterlimit:10"/><line x1="734.4" y1="211.52" x2="747.61" y2="211.17" style="stroke:#fff;stroke-miterlimit:10"/><line x1="733.44" y1="217" x2="746.65" y2="216.65" style="stroke:#fff;stroke-miterlimit:10"/><line x1="732.47" y1="222.48" x2="745.68" y2="222.13" style="stroke:#fff;stroke-miterlimit:10"/><line x1="731.51" y1="227.96" x2="744.72" y2="227.61" style="stroke:#fff;stroke-miterlimit:10"/><line x1="730.54" y1="233.44" x2="743.75" y2="233.09" style="stroke:#fff;stroke-miterlimit:10"/><line x1="729.58" y1="238.92" x2="742.79" y2="238.57" style="stroke:#fff;stroke-miterlimit:10"/><line x1="728.62" y1="244.4" x2="741.82" y2="244.05" style="stroke:#fff;stroke-miterlimit:10"/><line x1="727.65" y1="249.88" x2="740.86" y2="249.53" style="stroke:#fff;stroke-miterlimit:10"/><line x1="726.69" y1="255.36" x2="739.89" y2="255.01" style="stroke:#fff;stroke-miterlimit:10"/><line x1="725.72" y1="260.84" x2="738.93" y2="260.49" style="stroke:#fff;stroke-miterlimit:10"/><line x1="724.76" y1="266.32" x2="737.96" y2="265.97" style="stroke:#fff;stroke-miterlimit:10"/><line x1="723.79" y1="271.8" x2="737" y2="271.45" style="stroke:#fff;stroke-miterlimit:10"/><line x1="722.83" y1="277.28" x2="736.04" y2="276.93" style="stroke:#fff;stroke-miterlimit:10"/><line x1="721.86" y1="282.76" x2="735.07" y2="282.41" style="stroke:#fff;stroke-miterlimit:10"/><line x1="720.9" y1="288.24" x2="734.11" y2="287.89" style="stroke:#fff;stroke-miterlimit:10"/><line x1="719.93" y1="293.72" x2="733.14" y2="293.37" style="stroke:#fff;stroke-miterlimit:10"/><line x1="718.97" y1="299.2" x2="732.18" y2="298.85" style="stroke:#fff;stroke-miterlimit:10"/><line x1="718" y1="304.68" x2="731.21" y2="304.33" style="stroke:#fff;stroke-miterlimit:10"/><line x1="717.04" y1="310.16" x2="730.25" y2="309.81" style="stroke:#fff;stroke-miterlimit:10"/><line x1="716.07" y1="315.64" x2="729.28" y2="315.29" style="stroke:#fff;stroke-miterlimit:10"/><line x1="715.11" y1="321.12" x2="728.32" y2="320.77" style="stroke:#fff;stroke-miterlimit:10"/><line x1="714.15" y1="326.6" x2="727.35" y2="326.25" style="stroke:#fff;stroke-miterlimit:10"/><line x1="713.18" y1="332.08" x2="726.39" y2="331.73" style="stroke:#fff;stroke-miterlimit:10"/><line x1="712.22" y1="337.56" x2="725.42" y2="337.21" style="stroke:#fff;stroke-miterlimit:10"/><line x1="711.25" y1="343.04" x2="724.46" y2="342.69" style="stroke:#fff;stroke-miterlimit:10"/></g></g></svg>